<?xml version="1.0"?>
<svg version="1.1" xmlns="http://www.w3.org/2000/svg" xmlns:xlink="http://www.w3.org/1999/xlink" width="153" height="217">
    <desc iVinci="yes" version="4.4" gridStep="20" showGrid="no" snapToGrid="no" codePlatform="0"/>
    <g id="Layer1">
        <g id="Shape1">
            <desc type="0" basicInfo-basicType="0" basicInfo-roundedRectRadius="12" basicInfo-polygonSides="6" basicInfo-starPoints="5" bounding="rect(-8.75778,-2.82993,17.5156,5.65986)" text="" font-familyName="" font-pixelSize="20" font-bold="0" font-underline="0" font-alignment="1" strokeStyle="0" markerStart="0" markerEnd="0" shadowEnabled="0" shadowOffsetX="0" shadowOffsetY="2" shadowBlur="4" shadowOpacity="160" blurEnabled="0" blurRadius="4" transform="matrix(1,0,0,1,54.7578,73.8299)" pers-center="0,0" pers-size="0,0" pers-start="0,0" pers-end="0,0" locked="0" mesh="" flag=""/>
            <path id="shapePath1" d="M48.4682,74.266 C51.4682,72.266 57.4682,70.266 61.4682,71.266 C64.4682,72.266 64.4682,72.266 59.4682,72.266 C56.4682,72.266 52.4682,73.266 50.4682,75.266 C45.4682,77.266 44.4682,77.266 48.4682,74.266 Z" style="stroke:none;fill-rule:evenodd;fill:#ffc404;fill-opacity:1;"/>
        </g>
        <g id="Shape2">
            <desc type="0" basicInfo-basicType="0" basicInfo-roundedRectRadius="12" basicInfo-polygonSides="6" basicInfo-starPoints="5" bounding="rect(-5.5,-5.5,11,11)" text="" font-familyName="" font-pixelSize="20" font-bold="0" font-underline="0" font-alignment="1" strokeStyle="0" markerStart="0" markerEnd="0" shadowEnabled="0" shadowOffsetX="0" shadowOffsetY="2" shadowBlur="4" shadowOpacity="160" blurEnabled="0" blurRadius="4" transform="matrix(1,0,0,1,56.5,88.5)" pers-center="0,0" pers-size="0,0" pers-start="0,0" pers-end="0,0" locked="0" mesh="" flag=""/>
            <path id="shapePath2" d="M62,88.5 C62,91.5376 59.5376,94 56.5,94 C53.4624,94 51,91.5376 51,88.5 C51,85.4624 53.4624,83 56.5,83 C59.5376,83 62,85.4624 62,88.5 Z" style="stroke:#ffffff;stroke-opacity:1;stroke-width:4;stroke-linejoin:miter;stroke-miterlimit:2;stroke-linecap:butt;fill-rule:evenodd;fill:#ffc404;fill-opacity:1;"/>
        </g>
        <g id="Shape3">
            <desc type="0" basicInfo-basicType="0" basicInfo-roundedRectRadius="12" basicInfo-polygonSides="6" basicInfo-starPoints="5" bounding="rect(-3.5,-3.5,7,7)" text="" font-familyName="" font-pixelSize="20" font-bold="0" font-underline="0" font-alignment="1" strokeStyle="0" markerStart="0" markerEnd="0" shadowEnabled="0" shadowOffsetX="0" shadowOffsetY="2" shadowBlur="4" shadowOpacity="160" blurEnabled="0" blurRadius="4" transform="matrix(1,0,0,1,99.5,88.5)" pers-center="0,0" pers-size="0,0" pers-start="0,0" pers-end="0,0" locked="0" mesh="" flag=""/>
            <path id="shapePath3" d="M103,88.5 C103,90.433 101.433,92 99.5,92 C97.567,92 96,90.433 96,88.5 C96,86.567 97.567,85 99.5,85 C101.433,85 103,86.567 103,88.5 Z" style="stroke:none;fill-rule:evenodd;fill:#ffc404;fill-opacity:1;"/>
        </g>
        <g id="Shape4">
            <desc type="0" basicInfo-basicType="0" basicInfo-roundedRectRadius="12" basicInfo-polygonSides="6" basicInfo-starPoints="5" bounding="rect(-7.5,-7.5,15,15)" text="" font-familyName="" font-pixelSize="20" font-bold="0" font-underline="0" font-alignment="1" strokeStyle="0" markerStart="0" markerEnd="0" shadowEnabled="0" shadowOffsetX="0" shadowOffsetY="2" shadowBlur="4" shadowOpacity="160" blurEnabled="0" blurRadius="4" transform="matrix(1,0,0,1,99.5,88.5)" pers-center="0,0" pers-size="0,0" pers-start="0,0" pers-end="0,0" locked="0" mesh="" flag=""/>
            <path id="shapePath4" d="M99.5,94 C102.538,94 105,91.5376 105,88.5 C105,85.4624 102.538,83 99.5,83 C96.4624,83 94,85.4624 94,88.5 C94,91.5376 96.4624,94 99.5,94 M99.5,96 C95.3579,96 92,92.6421 92,88.5 C92,84.3579 95.3579,81 99.5,81 C103.642,81 107,84.3579 107,88.5 C107,92.6421 103.642,96 99.5,96 " style="stroke:none;fill-rule:evenodd;fill:#ffc404;fill-opacity:1;"/>
        </g>
        <g id="Shape5">
            <desc type="0" basicInfo-basicType="0" basicInfo-roundedRectRadius="12" basicInfo-polygonSides="6" basicInfo-starPoints="5" bounding="rect(-7.5,-7.5,15,15)" text="" font-familyName="" font-pixelSize="20" font-bold="0" font-underline="0" font-alignment="1" strokeStyle="0" markerStart="0" markerEnd="0" shadowEnabled="0" shadowOffsetX="0" shadowOffsetY="2" shadowBlur="4" shadowOpacity="160" blurEnabled="0" blurRadius="4" transform="matrix(1,0,0,1,56.5,88.5)" pers-center="0,0" pers-size="0,0" pers-start="0,0" pers-end="0,0" locked="0" mesh="" flag=""/>
            <path id="shapePath5" d="M56.5,94 C59.5376,94 62,91.5376 62,88.5 C62,85.4624 59.5376,83 56.5,83 C53.4624,83 51,85.4624 51,88.5 C51,91.5376 53.4624,94 56.5,94 M56.5,96 C52.3579,96 49,92.6421 49,88.5 C49,84.3579 52.3579,81 56.5,81 C60.6421,81 64,84.3579 64,88.5 C64,92.6421 60.6421,96 56.5,96 " style="stroke:none;fill-rule:evenodd;fill:#ffc404;fill-opacity:1;"/>
        </g>
        <g id="Shape6">
            <desc type="0" basicInfo-basicType="0" basicInfo-roundedRectRadius="12" basicInfo-polygonSides="6" basicInfo-starPoints="5" bounding="rect(-3.50106,-5.99941,7.00213,11.9988)" text="" font-familyName="" font-pixelSize="20" font-bold="0" font-underline="0" font-alignment="1" strokeStyle="0" markerStart="0" markerEnd="0" shadowEnabled="0" shadowOffsetX="0" shadowOffsetY="2" shadowBlur="4" shadowOpacity="160" blurEnabled="0" blurRadius="4" transform="matrix(1,0,0,1,78.6042,113.06)" pers-center="0,0" pers-size="0,0" pers-start="0,0" pers-end="0,0" locked="0" mesh="" flag=""/>
            <path id="shapePath6" d="M82.1036,112.999 C82.1615,116.312 80.6416,119.026 78.7089,119.059 C76.7762,119.093 75.1625,116.434 75.1047,113.121 C75.0469,109.808 76.5668,107.095 78.4995,107.061 C80.4322,107.027 82.0458,109.686 82.1036,112.999 Z" style="stroke:none;fill-rule:evenodd;fill:#ffc404;fill-opacity:1;"/>
        </g>
        <g id="Shape7">
            <desc type="0" basicInfo-basicType="0" basicInfo-roundedRectRadius="12" basicInfo-polygonSides="6" basicInfo-starPoints="5" bounding="rect(-9.21937,-3.25506,18.4387,6.51013)" text="" font-familyName="" font-pixelSize="20" font-bold="0" font-underline="0" font-alignment="1" strokeStyle="0" markerStart="0" markerEnd="0" shadowEnabled="0" shadowOffsetX="0" shadowOffsetY="2" shadowBlur="4" shadowOpacity="160" blurEnabled="0" blurRadius="4" transform="matrix(1,0,0,1,102.219,74.2551)" pers-center="0,0" pers-size="0,0" pers-start="0,0" pers-end="0,0" locked="0" mesh="" flag=""/>
            <path id="shapePath7" d="M106.971,75.2601 C103.971,73.2601 100.971,72.2601 97.9706,72.2601 C91.9706,72.2601 91.9706,72.2601 94.9706,71.2601 C98.9706,70.2601 105.971,72.2601 108.971,75.2601 C112.971,78.2601 111.971,78.2601 106.971,75.2601 Z" style="stroke:none;fill-rule:evenodd;fill:#ffc404;fill-opacity:1;"/>
        </g>
        <g id="Shape8">
            <desc type="0" basicInfo-basicType="0" basicInfo-roundedRectRadius="12" basicInfo-polygonSides="6" basicInfo-starPoints="5" bounding="rect(-47.0974,-80.2186,94.1948,160.437)" text="" font-familyName="" font-pixelSize="20" font-bold="0" font-underline="0" font-alignment="1" strokeStyle="0" markerStart="0" markerEnd="0" shadowEnabled="0" shadowOffsetX="0" shadowOffsetY="2" shadowBlur="4" shadowOpacity="160" blurEnabled="0" blurRadius="4" transform="matrix(1,0,0,1,74.0974,128.219)" pers-center="0,0" pers-size="0,0" pers-start="0,0" pers-end="0,0" locked="0" mesh="" flag=""/>
            <path id="shapePath8" d="M65.125,205.15 C63.125,203.15 61.125,202.15 60.125,202.15 C59.125,202.15 58.125,200.15 57.125,199.15 C56.125,197.15 56.125,196.15 56.125,193.15 C57.125,191.15 57.125,190.15 56.125,188.15 L56.125,184.15 L56.125,180.15 C54.125,179.15 54.125,172.15 56.125,171.15 C56.125,171.15 55.125,170.15 54.125,168.15 C50.125,166.15 50.125,165.15 47.125,151.15 C46.125,143.15 43.125,137.15 31.125,114.15 C28.125,108.15 27.125,106.15 27.125,98.15 C26.125,83.15 31.125,71.15 42.125,60.15 C53.125,51.15 65.125,47.15 80.125,48.15 C91.125,48.15 98.125,51.15 107.125,57.15 C112.125,62.15 122.125,73.15 121.125,76.15 C121.125,76.15 120.125,75.15 119.125,72.15 C115.125,66.15 107.125,60.15 99.125,56.15 C92.125,53.15 90.125,52.15 82.125,52.15 C71.125,51.15 63.125,53.15 54.125,59.15 C33.125,72.15 26.125,105.15 39.125,123.15 C47.125,133.15 52.125,142.15 54.125,150.15 C55.125,155.15 57.125,160.15 57.125,161.15 C57.125,162.15 58.125,163.15 59.125,164.15 C61.125,165.15 62.125,166.15 62.125,169.15 C62.125,171.15 62.125,173.15 61.125,173.15 C59.125,175.15 59.125,177.15 61.125,179.15 C63.125,180.15 63.125,183.15 61.125,185.15 C60.125,185.15 60.125,186.15 60.125,187.15 C62.125,188.15 62.125,193.15 60.125,194.15 C58.125,196.15 59.125,199.15 62.125,200.15 C63.125,200.15 65.125,202.15 66.125,204.15 C69.125,209.15 69.125,210.15 65.125,205.15 Z" style="stroke:none;fill-rule:evenodd;fill:#ffc404;fill-opacity:1;"/>
        </g>
        <g id="Shape9">
            <desc type="0" basicInfo-basicType="0" basicInfo-roundedRectRadius="12" basicInfo-polygonSides="6" basicInfo-starPoints="5" bounding="rect(-9.16422,-9.44755,18.3284,18.8951)" text="" font-familyName="" font-pixelSize="20" font-bold="0" font-underline="0" font-alignment="1" strokeStyle="0" markerStart="0" markerEnd="0" shadowEnabled="0" shadowOffsetX="0" shadowOffsetY="2" shadowBlur="4" shadowOpacity="160" blurEnabled="0" blurRadius="4" transform="matrix(1,0,0,1,32.1642,36.4476)" pers-center="0,0" pers-size="0,0" pers-start="0,0" pers-end="0,0" locked="0" mesh="" flag=""/>
            <path id="shapePath9" d="M29,38.3396 C23,32.3396 23,30.3396 23,29.3396 C25,25.3396 28,26.3396 34,33.3396 C41,41.3396 42,42.3396 41,44.3396 C40,47.3396 36,46.3396 29,38.3396 Z" style="stroke:none;fill-rule:evenodd;fill:#dc191f;fill-opacity:1;"/>
        </g>
        <g id="Shape10">
            <desc type="0" basicInfo-basicType="0" basicInfo-roundedRectRadius="12" basicInfo-polygonSides="6" basicInfo-starPoints="5" bounding="rect(-3.75,-11.625,7.5,23.25)" text="" font-familyName="" font-pixelSize="20" font-bold="0" font-underline="0" font-alignment="1" strokeStyle="0" markerStart="0" markerEnd="0" shadowEnabled="0" shadowOffsetX="0" shadowOffsetY="2" shadowBlur="4" shadowOpacity="160" blurEnabled="0" blurRadius="4" transform="matrix(1,0,0,1,78.75,17.625)" pers-center="0,0" pers-size="0,0" pers-start="0,0" pers-end="0,0" locked="0" mesh="" flag=""/>
            <path id="shapePath10" d="M76,27.75 C75,26.75 75,21.75 75,17.75 C75,12.75 75,7.75 76,6.75 C77,5.75 80,5.75 81,6.75 C83,9.75 83,26.75 81,27.75 C79,29.75 77,29.75 76,27.75 Z" style="stroke:none;fill-rule:evenodd;fill:#fbec24;fill-opacity:1;"/>
        </g>
        <g id="Shape11">
            <desc type="0" basicInfo-basicType="0" basicInfo-roundedRectRadius="12" basicInfo-polygonSides="6" basicInfo-starPoints="5" bounding="rect(-9,-9.54478,18,19.0896)" text="" font-familyName="" font-pixelSize="20" font-bold="0" font-underline="0" font-alignment="1" strokeStyle="0" markerStart="0" markerEnd="0" shadowEnabled="0" shadowOffsetX="0" shadowOffsetY="2" shadowBlur="4" shadowOpacity="160" blurEnabled="0" blurRadius="4" transform="matrix(1,0,0,1,123,36.5448)" pers-center="0,0" pers-size="0,0" pers-start="0,0" pers-end="0,0" locked="0" mesh="" flag=""/>
            <path id="shapePath11" d="M114.75,45.3396 C112.75,43.3396 114.75,39.3396 120.75,33.3396 C128.75,26.3396 131.75,25.3396 131.75,29.3396 C132.75,31.3396 130.75,33.3396 125.75,39.3396 C119.75,45.3396 116.75,47.3396 114.75,45.3396 Z" style="stroke:none;fill-rule:evenodd;fill:#099ee0;fill-opacity:1;"/>
        </g>
    </g>
</svg>
